# xmcd
#
# Track frame offsets: 
#        150
#        26551
#        46236
#        69406
#        89868
#        107941
#        124725
#        142664
#        161323
#        182024
#        207158
#        223382
#        239274
#        257987
#        276967
#        290648
#        310071
#        334934
#        347825
#
# Disc length: 4796 seconds
#
# Revision: 0
# Processed by: cddbd v1.5.2PL0 Copyright (c) Steve Scherf et al.
# Submitted via: ExactAudioCopy v0.99pb4
#
DISCID=2b12ba13
DTITLE=Various Artist - Русская коллекция. Хиты 90-х. CD1
DYEAR=2009
DGENRE=Pop
TTITLE0=Нэнси - Дым сигарет с ментолом
TTITLE1=Анжелика Варум - Художник, что рисует дождь
TTITLE2=Фристайл - Ах, какая женщина
TTITLE3=Алла Пугачева - Мэри
TTITLE4=Владимир Пресняков мл. - Стюардесса
TTITLE5=Натали - Ветер с моря дул
TTITLE6=Ефрем Амирамов - Молодая
TTITLE7=Иванушки - Тучи
TTITLE8=София Ротару - Ночной мотылек
TTITLE9=Григорий Лепс - Ну и что
TTITLE10=Лицей - Ты будешь с ним
TTITLE11=Мурат Насыров - Мальчик хочет в Тамбов
TTITLE12=Лариса Долина - До свидания
TTITLE13=Андрей Губин - Лиза
TTITLE14=Браво - Дорога в облака
TTITLE15=Рок-острова - Ничего не говори
TTITLE16=Профессор Лебединский - Я убью тебя лодочник
TTITLE17=Високосный Год - Лучшая песня о любви
TTITLE18=Виктор Зинчук - Полонез
EXTD=
EXTT0=
EXTT1=
EXTT2=
EXTT3=
EXTT4=
EXTT5=
EXTT6=
EXTT7=
EXTT8=
EXTT9=
EXTT10=
EXTT11=
EXTT12=
EXTT13=
EXTT14=
EXTT15=
EXTT16=
EXTT17=
EXTT18=
PLAYORDER=
